HIERARCHY
ROOT SpineBase
{
  OFFSET 0.000000 0.000000 0.000000
  CHANNELS 6 Xposition Yposition Zposition Zrotation Xrotation Yrotation
  JOINT SpineMid
  {
    OFFSET 0.000000 30.029344 0.000000
    CHANNELS 3 Zrotation Xrotation Yrotation
    JOINT SpineShoulder
    {
      OFFSET -0.011133 22.308538 -0.726763
      CHANNELS 3 Zrotation Xrotation Yrotation
      JOINT Neck
      {
        OFFSET -0.009590 7.384155 -0.590253
        CHANNELS 3 Zrotation Xrotation Yrotation
        JOINT Head
        {
          OFFSET 2.176934 14.353694 -0.362300
          CHANNELS 3 Zrotation Xrotation Yrotation
          End Site
          {
            OFFSET 0 0 0
          }
        }
      }
      JOINT ShoulderLeft
      {
        OFFSET -15.731200 -1.694979 -6.866011
        CHANNELS 3 Zrotation Xrotation Yrotation
        JOINT ElbowLeft
        {
          OFFSET -5.625579 -25.528238 -2.379360
          CHANNELS 3 Zrotation Xrotation Yrotation
          JOINT WristLeft
          {
            OFFSET 0.698480 -24.013883 -7.621359
            CHANNELS 3 Zrotation Xrotation Yrotation
            JOINT HandLeft
            {
              OFFSET 0.335281 -6.871449 0.085764
              CHANNELS 3 Zrotation Xrotation Yrotation
              JOINT HandTipLeft
              {
                OFFSET -0.161053 -7.196254 -0.634399
                CHANNELS 3 Zrotation Xrotation Yrotation
                End Site
                {
                  OFFSET 0 0 0
                }
              }
              JOINT ThumbLeft
              {
                OFFSET -3.238881 -0.475010 -2.274826
                CHANNELS 3 Zrotation Xrotation Yrotation
                End Site
                {
                  OFFSET 0 0 0
                }
              }
            }
          }
        }
      }
      JOINT ShoulderRight
      {
        OFFSET 17.107717 -3.303911 3.236460
        CHANNELS 3 Zrotation Xrotation Yrotation
        JOINT ElbowRight
        {
          OFFSET 2.275421 -29.269933 4.307758
          CHANNELS 3 Zrotation Xrotation Yrotation
          JOINT WristRight
          {
            OFFSET 5.614923 -26.161572 -4.040234
            CHANNELS 3 Zrotation Xrotation Yrotation
            JOINT HandRight
            {
              OFFSET -0.930809 -7.852530 -0.213607
              CHANNELS 3 Zrotation Xrotation Yrotation
              JOINT HandTipRight
              {
                OFFSET 0.319157 -8.352014 -2.557123
                CHANNELS 3 Zrotation Xrotation Yrotation
                End Site
                {
                  OFFSET 0 0 0
                }
              }
              JOINT ThumbRight
              {
                OFFSET -1.745197 -2.395368 0.152087
                CHANNELS 3 Zrotation Xrotation Yrotation
                End Site
                {
                  OFFSET 0 0 0
                }
              }
            }
          }
        }
      }
    }
  }
  JOINT HipLeft
  {
    OFFSET -6.630182 0.600954 -5.131549
    CHANNELS 3 Zrotation Xrotation Yrotation
    JOINT KneeLeft
    {
      OFFSET -6.382734 -35.607172 5.277815
      CHANNELS 3 Zrotation Xrotation Yrotation
      JOINT AnkleLeft
      {
        OFFSET -3.301518 -36.021128 7.505878
        CHANNELS 3 Zrotation Xrotation Yrotation
        JOINT FootLeft
        {
          OFFSET -2.453951 -7.448682 -6.396938
          CHANNELS 3 Zrotation Xrotation Yrotation
          End Site
          {
            OFFSET 0 0 0
          }
        }
      }
    }
  }
  JOINT HipRight
  {
    OFFSET 6.948596 1.105175 -2.083046
    CHANNELS 3 Zrotation Xrotation Yrotation
    JOINT KneeRight
    {
      OFFSET 0.973019 -35.966897 2.200960
      CHANNELS 3 Zrotation Xrotation Yrotation
      JOINT AnkleRight
      {
        OFFSET 0.093241 -37.194739 4.076970
        CHANNELS 3 Zrotation Xrotation Yrotation
        JOINT FootRight
        {
          OFFSET 0.710040 -7.750091 -6.603647
          CHANNELS 3 Zrotation Xrotation Yrotation
          End Site
          {
            OFFSET 0 0 0
          }
        }
      }
    }
  }
}
MOTION
Frames: 13
Frame Time: 0.033333
-17.681249 81.178979 361.414379 -1.789112 -2.374069 -4.343486 0.467892 0.256330 4.255259 0.281620 0.077708 -0.045286 6.863970 -0.328612 0.493130 0.000000 0.000000 0.000000 1.146342 -2.406740 1.047162 -1.774905 11.337498 0.020657 -3.619493 12.737178 0.517968 11.948685 -7.535137 0.740292 0.000000 0.000000 0.000000 0.000000 0.000000 0.000000 46.653890 -2.411331 6.689684 6.386198 -8.725191 -13.748544 17.021425 2.299670 8.311666 -23.383070 -10.414427 -8.885605 0.000000 0.000000 0.000000 0.000000 0.000000 0.000000 3.930642 3.943166 4.273041 -0.871443 -0.960381 0.166932 -0.021853 -2.537089 -0.863464 0.000000 0.000000 0.000000 4.048884 4.056847 4.324578 -1.836855 -2.693642 -0.122658 -1.961685 3.062980 1.185528 0.000000 0.000000 0.000000
-18.044353 81.338798 361.663493 -2.103935 -2.758702 -2.332294 0.475574 0.364086 2.220938 0.369576 0.125043 -0.054898 8.878905 -0.621865 0.607495 0.000000 0.000000 0.000000 1.327308 -2.900677 1.220339 -3.528497 12.135696 0.719173 -1.792208 12.573314 0.037807 9.825956 -8.596705 0.488766 0.000000 0.000000 0.000000 0.000000 0.000000 0.000000 49.548629 3.288804 5.032621 9.379835 -7.002214 -13.899864 20.287444 -3.294418 13.056082 -22.917628 -10.329969 -10.871929 0.000000 0.000000 0.000000 0.000000 0.000000 0.000000 4.959060 4.539317 2.205828 -1.462994 -0.818416 0.082412 0.129734 -2.622463 -1.082140 0.000000 0.000000 0.000000 4.947787 4.552217 2.269300 -2.159945 -3.036266 -0.143905 -2.918024 3.067557 1.881585 0.000000 0.000000 0.000000
-18.306524 81.452125 361.960963 -2.289259 -3.128455 -0.221187 0.425258 0.430323 0.092058 0.417565 0.184734 -0.064003 10.770142 -0.838571 0.704260 0.000000 0.000000 0.000000 1.407740 -3.506898 1.425676 -5.464975 12.250165 1.502072 0.590192 10.638603 -0.700626 7.038401 -9.599860 0.109326 0.000000 0.000000 0.000000 0.000000 0.000000 0.000000 50.461146 10.476755 2.375945 11.399645 -5.047103 -12.901029 25.958896 -2.964368 12.287849 -24.415313 -10.806459 -12.134484 0.000000 0.000000 0.000000 0.000000 0.000000 0.000000 5.792322 5.069630 0.018401 -2.011381 -0.685568 -0.000616 0.425650 -2.719131 -1.336106 0.000000 0.000000 0.000000 5.720759 5.031378 0.112627 -2.511914 -3.465760 -0.176126 -3.817662 2.873350 2.582686 0.000000 0.000000 0.000000
-18.433029 81.489566 362.266848 -2.293448 -3.456523 1.920360 0.311156 0.436091 -2.057206 0.418223 0.253067 -0.070434 12.336091 -0.844964 0.741835 0.000000 0.000000 0.000000 1.420278 -4.109363 1.628727 -7.456287 11.704854 2.285233 3.412007 8.309289 -1.539837 2.366380 -9.895679 -0.383710 0.000000 0.000000 0.000000 0.000000 0.000000 0.000000 49.337723 18.501958 -0.709601 12.856672 -1.290479 -11.390284 29.554815 -2.587143 10.870841 -26.139979 -16.204790 -9.865164 0.000000 0.000000 0.000000 0.000000 0.000000 0.000000 6.393868 5.554184 -2.211445 -2.626431 -0.622687 -0.098839 0.804603 -2.767227 -1.488183 0.000000 0.000000 0.000000 6.242432 5.432375 -2.066400 -2.776048 -3.874338 -0.205171 -4.764675 2.459452 3.333331 0.000000 0.000000 0.000000
-18.514166 81.491511 362.557537 -2.254821 -3.754082 3.990836 0.220241 0.425338 -4.131921 0.396057 0.324147 -0.074751 13.709111 -0.763705 0.746145 0.000000 0.000000 0.000000 1.433035 -4.727652 1.826612 -9.106944 10.413033 2.829025 5.221346 8.273127 -2.160357 0.254520 -10.928106 -0.496424 0.000000 0.000000 0.000000 0.000000 0.000000 0.000000 48.595930 26.917937 -3.902918 12.980991 3.513921 -9.947164 28.310803 -4.320617 9.950683 -20.075881 -14.030017 -10.858042 0.000000 0.000000 0.000000 0.000000 0.000000 0.000000 6.906584 5.948090 -4.368080 -3.142310 -0.479286 -0.193258 1.001228 -2.943952 -1.471576 0.000000 0.000000 0.000000 6.746462 5.721125 -4.172924 -3.082259 -4.201484 -0.239645 -5.449224 2.193616 3.908162 0.000000 0.000000 0.000000
-18.515080 81.445692 362.810709 -2.171778 -3.943357 5.950175 0.121222 0.373123 -6.090610 0.324489 0.356309 -0.079636 15.101748 -0.448539 0.678934 0.000000 0.000000 0.000000 1.550456 -5.854677 2.126665 -10.566482 9.853836 3.265568 6.104360 7.772097 -2.758641 0.778330 -10.990628 -0.288181 0.000000 0.000000 0.000000 0.000000 0.000000 0.000000 46.990507 36.086266 -7.184598 9.573317 6.994478 -7.624950 28.673872 4.858361 -2.523457 -12.075047 -19.075287 -4.547513 0.000000 0.000000 0.000000 0.000000 0.000000 0.000000 7.213210 6.186034 -6.400971 -3.452841 -0.311822 -0.257849 1.012628 -3.183709 -1.312013 0.000000 0.000000 0.000000 7.184132 5.733058 -6.152482 -3.454212 -4.267123 -0.280286 -6.004953 1.778742 4.429837 0.000000 0.000000 0.000000
-18.503598 81.396445 363.040386 -2.153364 -4.062846 7.963018 0.052608 0.313483 -8.105476 0.252381 0.378451 -0.085485 16.470063 -0.061682 0.579626 0.000000 0.000000 0.000000 1.769831 -7.102066 2.441880 -11.666636 9.280661 3.518945 6.162957 7.881870 -3.183229 2.475981 -10.334297 -0.038147 0.000000 0.000000 0.000000 0.000000 0.000000 0.000000 45.137343 44.505226 -9.941453 2.307487 9.502926 -5.868013 24.740063 10.935294 -12.198206 2.593506 -22.460027 7.828565 0.000000 0.000000 0.000000 0.000000 0.000000 0.000000 7.489966 6.341175 -8.491745 -3.551545 -0.215381 -0.272988 0.562047 -3.106847 -0.973977 0.000000 0.000000 0.000000 7.684851 5.487812 -8.175400 -3.866332 -4.117977 -0.319387 -6.445416 1.443189 4.879859 0.000000 0.000000 0.000000
-18.503606 81.326088 363.261238 -2.193555 -4.163809 9.909883 0.010632 0.265026 -10.057742 0.179621 0.398821 -0.092317 17.847011 0.240999 0.493987 0.000000 0.000000 0.000000 2.390746 -8.553940 2.785718 -13.522077 9.327850 4.124404 7.231825 7.690078 -3.778267 3.846324 -10.686195 0.113933 0.000000 0.000000 0.000000 0.000000 0.000000 0.000000 44.295790 52.351850 -12.727865 -8.343235 11.333454 -5.702869 24.090021 10.904638 -13.841630 11.265041 -19.775805 14.461137 0.000000 0.000000 0.000000 0.000000 0.000000 0.000000 7.798560 6.531047 -10.535809 -3.527465 -0.248660 -0.245416 -0.197083 -2.846652 -0.519981 0.000000 0.000000 0.000000 8.329586 5.252184 -10.132125 -4.372377 -4.067847 -0.369723 -6.847243 1.313844 5.316495 0.000000 0.000000 0.000000
-18.462784 81.279399 363.420866 -2.247007 -4.195759 11.896734 -0.008795 0.220091 -12.049656 0.115410 0.389352 -0.098517 19.088605 0.690483 0.353797 0.000000 0.000000 0.000000 2.815855 -9.312478 2.975636 -14.657533 8.823577 4.459561 8.525967 7.007093 -4.302241 4.669498 -8.694481 0.197367 0.000000 0.000000 0.000000 0.000000 0.000000 0.000000 41.224957 59.393202 -14.070683 -19.622497 11.018511 -6.495427 26.544677 10.834819 -13.112144 11.061642 -13.812046 14.762122 0.000000 0.000000 0.000000 0.000000 0.000000 0.000000 8.057235 6.528641 -12.587016 -3.483222 -0.165877 -0.233983 -0.996944 -2.565114 -0.016718 0.000000 0.000000 0.000000 8.602064 4.406404 -12.092680 -4.546551 -3.223806 -0.353481 -7.345425 1.110258 5.753039 0.000000 0.000000 0.000000
-18.410702 81.260508 363.559339 -2.319320 -4.194044 13.952996 -0.033640 0.172315 -14.111762 0.045012 0.372427 -0.105921 20.219006 1.126424 0.210534 0.000000 0.000000 0.000000 3.432229 -10.271070 3.209261 -16.168621 8.595882 4.981083 10.643209 6.947667 -4.903958 4.481449 -7.403410 0.188123 0.000000 0.000000 0.000000 0.000000 0.000000 0.000000 34.858073 66.550898 -13.080645 -25.947304 6.610282 -7.514307 24.606303 11.721262 -14.543122 4.578017 -6.561021 13.126301 0.000000 0.000000 0.000000 0.000000 0.000000 0.000000 8.315567 6.498537 -14.710828 -3.431070 -0.157140 -0.213824 -1.804401 -2.249629 0.513497 0.000000 0.000000 0.000000 8.911079 3.586598 -14.114703 -4.798011 -2.568978 -0.348825 -7.665414 0.869321 6.053548 0.000000 0.000000 0.000000
-18.271196 81.271701 363.606956 -2.319286 -4.102614 16.138621 -0.082754 0.129821 -16.296564 -0.022187 0.338561 -0.111270 21.196360 1.461922 0.092223 0.000000 0.000000 0.000000 4.200432 -11.269001 3.440293 -17.636223 8.445103 5.458548 12.816982 6.686040 -5.486817 4.902752 -4.739094 0.094730 0.000000 0.000000 0.000000 0.000000 0.000000 0.000000 23.075713 72.425529 -7.022221 -31.816939 2.008011 -9.868632 26.312259 11.609762 -13.315309 -5.276870 -8.212706 10.106240 0.000000 0.000000 0.000000 0.000000 0.000000 0.000000 8.374850 6.347977 -16.941461 -3.314707 -0.170793 -0.185711 -2.210924 -2.003388 0.815856 0.000000 0.000000 0.000000 9.106707 2.696157 -16.243543 -5.155099 -2.089432 -0.356961 -7.969048 0.765107 6.444984 0.000000 0.000000 0.000000
-18.077198 81.311876 363.568592 -2.258986 -3.924624 18.034351 -0.143009 0.075203 -18.186244 -0.080714 0.290754 -0.114102 21.819718 1.928433 -0.069323 0.000000 0.000000 0.000000 5.012198 -12.070586 3.619731 -18.941772 7.958385 5.801988 15.410913 5.782430 -6.123946 3.634456 -1.075249 -0.038835 0.000000 0.000000 0.000000 0.000000 0.000000 0.000000 3.740125 75.832679 6.506737 -32.326977 -2.946186 -10.428428 22.962289 10.041884 -14.510299 -11.314285 -12.905164 7.947116 0.000000 0.000000 0.000000 0.000000 0.000000 0.000000 8.229810 6.063382 -18.839821 -3.114952 -0.114975 -0.154235 -2.510027 -1.735466 1.004478 0.000000 0.000000 0.000000 9.104145 1.874895 -18.072159 -5.420896 -1.819471 -0.359357 -8.676055 0.498765 7.163974 0.000000 0.000000 0.000000
-17.881976 81.311715 363.523983 -2.178799 -3.773769 19.859636 -0.230807 0.065638 -20.004253 -0.133381 0.264952 -0.117048 22.360702 2.575278 -0.291614 0.000000 0.000000 0.000000 5.733235 -13.178599 3.888685 -19.716393 8.149749 6.000392 17.656086 4.477424 -6.587833 2.261439 2.054234 -0.159078 0.000000 0.000000 0.000000 0.000000 0.000000 0.000000 -20.682536 76.522451 25.026157 -31.596259 -7.545843 -10.401772 20.846600 8.760660 -15.194679 -10.332617 -22.445659 6.276153 0.000000 0.000000 0.000000 0.000000 0.000000 0.000000 8.080433 5.861984 -20.680415 -2.909191 -0.166138 -0.108048 -2.553875 -1.696158 1.067178 0.000000 0.000000 0.000000 9.239783 1.283060 -19.836617 -5.894028 -1.968428 -0.396441 -9.148749 0.364456 7.786565 0.000000 0.000000 0.000000
